<svg xmlns="http://www.w3.org/2000/svg" enable-background="new 0 0 64 64" viewBox="0 0 64 64" id="capital">
  <path d="M4,63h6c1.654,0,3-1.346,3-3v-1.344l6.135-2.66l27.439-0.002c2.227,0.161,4.289-0.489,5.96-1.894l9.068-7.942
		c1.675-1.468,1.869-3.942,0.441-5.633c-0.47-0.557-1.075-0.958-1.748-1.215C62.067,36.173,63,32.639,63,29
		c0-9.324-6.112-17.238-14.536-19.971C48.795,8.605,49,8.078,49,7.5c0-1.019-0.614-1.894-1.49-2.283l1.385-2.77
		c0.155-0.31,0.139-0.678-0.044-0.973C48.668,1.18,48.347,1,48,1H36c-0.347,0-0.668,0.18-0.851,0.474
		c-0.183,0.295-0.199,0.663-0.044,0.973l1.385,2.77C35.614,5.606,35,6.481,35,7.5c0,0.578,0.205,1.105,0.536,1.529
		C27.112,11.762,21,19.676,21,29c0,3.165,0.719,6.283,2.081,9.111c-1.801,0.209-3.579,0.766-5.226,1.696l-0.271,0.153L13,41.584V41
		c0-1.654-1.346-3-3-3H4c-1.654,0-3,1.346-3,3v19C1,61.654,2.346,63,4,63z M46.382,3l-1,2h-6.764l-1-2H46.382z M37.5,8
		C37.225,8,37,7.776,37,7.5S37.225,7,37.5,7h9C46.775,7,47,7.224,47,7.5S46.775,8,46.5,8H37.5z M42,10c10.477,0,19,8.523,19,19
		c0,3.574-1.002,7.032-2.881,10.042c-0.837,0.109-1.617,0.451-2.264,1.007l-8.702,7.502c-0.194,0.166-0.424,0.274-0.665,0.349
		C46.811,47.308,47,46.647,47,45.952C47,43.736,45.243,42,43,42h-8.492c-2.537-2.474-5.843-3.827-9.218-3.97
		C23.797,35.27,23,32.162,23,29C23,18.523,31.523,10,42,10z M18.334,41.816c0.055-0.019,0.106-0.043,0.157-0.071l0.347-0.195
		c4.62-2.607,10.437-1.837,14.249,1.858C33.242,43.757,33.593,44,34,44h9c1.141,0,2,0.839,2,1.952c0,0.55-0.21,1.066-0.591,1.454
		C44.032,47.789,43.532,48,43.001,48H43l-11-0.001v2L43,50l0.387,0.004c0.576,0.007,1.571,0.02,2.636-0.004
		c0.892-0.02,1.756-0.35,2.435-0.932l8.702-7.503c0.479-0.412,1.11-0.607,1.752-0.557c0.64,0.052,1.209,0.338,1.604,0.807
		c0.729,0.864,0.63,2.085-0.231,2.839l-9.053,7.93c-1.248,1.05-2.814,1.537-4.585,1.414h-27.72c-0.137,0-0.272,0.028-0.397,0.083
		L13,56.477V43.706L18.334,41.816z M3,41c0-0.551,0.448-1,1-1h6c0.552,0,1,0.449,1,1v19c0,0.551-0.448,1-1,1H4c-0.552,0-1-0.449-1-1
		V41z"></path>
  <path d="M42,39c6.065,0,11-4.935,11-11s-4.935-11-11-11s-11,4.935-11,11S35.935,39,42,39z M42,19c4.963,0,9,4.038,9,9s-4.037,9-9,9
		s-9-4.038-9-9S37.037,19,42,19z"></path>
  <path d="M42,33c-1.103,0-2-0.897-2-2h-2c0,1.858,1.279,3.411,3,3.858V36h2v-1.142c1.721-0.447,3-2,3-3.858c0-2.206-1.794-4-4-4
		c-1.103,0-2-0.897-2-2s0.897-2,2-2s2,0.897,2,2h2c0-1.858-1.279-3.411-3-3.858V20h-2v1.142c-1.721,0.447-3,2-3,3.858
		c0,2.206,1.794,4,4,4c1.103,0,2,0.897,2,2S43.103,33,42,33z"></path>
</svg>
