<svg xmlns="http://www.w3.org/2000/svg" viewBox="0 0 25 25" id="growth-graph">
  <path fill="#2b3344" d="M21,9.5v12a.5.5,0,0,1-.5.5h-3a.5.5,0,0,1-.5-.5V9.5a.5.5,0,0,1,.5-.5h3A.5.5,0,0,1,21,9.5ZM14,13H11a.5.5,0,0,0-.5.5v8a.5.5,0,0,0,.5.5h3a.5.5,0,0,0,.5-.5v-8A.5.5,0,0,0,14,13ZM7.5,17h-3a.5.5,0,0,0-.5.5v4a.5.5,0,0,0,.5.5h3a.5.5,0,0,0,.5-.5v-4A.5.5,0,0,0,7.5,17ZM17.25,6.46l-.25-3v0h0a.3.3,0,0,0,0-.1s0,0,0-.05a0,0,0,0,1,0,0l0,0-.07-.08a0,0,0,0,1,0,0l0,0h0l0,0-.07,0h-.22l-2.95.53a.5.5,0,0,0-.41.58.51.51,0,0,0,.5.41h.08l1.73-.31A12.45,12.45,0,0,1,6.5,9a.5.5,0,0,0-.5.5.5.5,0,0,0,.5.5,13.15,13.15,0,0,0,9.62-5.13l.14,1.67a.5.5,0,0,0,.49.46h.05A.5.5,0,0,0,17.25,6.46Z"></path>
</svg>
