<?xml version="1.0" standalone="no"?>
<!DOCTYPE svg PUBLIC "-//W3C//DTD SVG 20010904//EN"
 "http://www.w3.org/TR/2001/REC-SVG-20010904/DTD/svg10.dtd">
<svg version="1.0" xmlns="http://www.w3.org/2000/svg"
 width="1600.000000pt" height="1600.000000pt" viewBox="0 0 1600.000000 1600.000000"
 preserveAspectRatio="xMidYMid meet">

<g transform="translate(0.000000,1600.000000) scale(0.100000,-0.100000)"
fill="#000000" stroke="none">
<path d="M8269 11988 l-1 -53 -10 48 c-9 43 -12 46 -24 30 -7 -10 -14 -28 -14
-40 0 -44 -29 -77 -31 -35 -1 18 -4 12 -24 -45 -4 -13 -12 -23 -18 -23 -15 0
-67 -51 -67 -66 0 -6 -7 -15 -15 -18 -9 -3 -15 -11 -14 -18 4 -23 -13 -48 -32
-48 -12 0 -19 -7 -19 -20 0 -11 -5 -20 -10 -20 -6 0 -30 -18 -52 -40 -23 -22
-46 -40 -50 -40 -4 0 -8 -7 -8 -16 0 -9 -9 -18 -20 -21 -12 -3 -20 -14 -20
-27 0 -12 -20 -44 -45 -70 -25 -27 -45 -52 -45 -57 0 -4 -9 -11 -20 -14 -11
-3 -20 -13 -20 -21 0 -8 -7 -14 -15 -14 -8 0 -15 -5 -15 -10 0 -7 -6 -7 -18
-1 -18 9 -19 3 -25 -102 -4 -62 -7 -458 -7 -882 0 -843 1 -860 60 -1070 149
-528 609 -943 1148 -1036 155 -26 379 -26 534 0 440 76 846 385 1052 801 147
298 187 634 115 967 -30 138 -54 205 -120 338 -184 368 -496 631 -897 755
-176 54 -240 60 -633 60 l-359 0 0 -340 0 -340 338 0 c321 0 341 -1 433 -24
110 -28 174 -58 270 -127 217 -158 344 -425 326 -689 -8 -113 -28 -185 -83
-300 -88 -183 -224 -311 -413 -388 -199 -80 -385 -81 -590 -2 -246 95 -442
327 -489 580 -7 35 -13 479 -16 1210 -3 635 -9 1183 -12 1218 -8 76 -24 82
-25 10z m-32 -30 c-3 -7 -5 -2 -5 12 0 14 2 19 5 13 2 -7 2 -19 0 -25z"/>
<path d="M7371 10999 c-1 -43 -60 -148 -91 -164 -15 -8 -33 -28 -38 -45 -8
-21 -18 -30 -32 -30 -29 0 -58 -29 -41 -40 10 -6 9 -14 -4 -39 -18 -36 -50
-71 -64 -71 -5 0 -12 -9 -16 -19 -3 -11 -15 -23 -26 -26 -10 -4 -19 -10 -19
-15 0 -5 -10 -11 -22 -13 -14 -3 -7 -5 17 -6 31 -2 36 -4 20 -10 -33 -14 73
-23 220 -19 l130 3 2 197 c2 166 -1 206 -17 260 -11 39 -19 53 -19 37z m-4
-111 c-3 -7 -5 -2 -5 12 0 14 2 19 5 13 2 -7 2 -19 0 -25z"/>
<path d="M2840 6644 c-274 -49 -490 -256 -557 -534 -24 -102 -24 -308 0 -405
72 -282 289 -486 558 -526 150 -22 308 0 424 59 53 26 147 95 179 130 18 21
18 22 -35 69 -29 26 -61 56 -71 66 -18 17 -20 16 -62 -26 -25 -24 -73 -57
-108 -75 -255 -128 -534 -5 -662 293 -29 67 -30 75 -30 215 0 134 3 150 27
209 38 92 80 152 152 220 88 81 173 121 276 128 114 8 186 -13 279 -83 l73
-55 59 58 c32 32 57 64 56 73 -6 27 -133 119 -208 151 -68 29 -86 32 -200 35
-69 1 -136 1 -150 -2z"/>
<path d="M5065 6644 c-54 -9 -148 -45 -209 -81 -164 -95 -288 -254 -335 -427
-74 -274 -15 -551 159 -740 22 -24 37 -46 33 -49 -3 -4 -144 -7 -313 -7 -334
0 -367 4 -440 59 -75 55 -108 116 -120 226 -6 44 -10 290 -10 548 l0 467 -100
0 -100 0 0 -523 c0 -491 1 -529 20 -602 25 -98 53 -146 124 -213 69 -65 153
-105 267 -126 125 -23 1080 -24 1237 0 203 30 369 134 478 300 69 104 93 166
119 300 19 99 19 157 0 263 -25 141 -71 246 -155 351 -67 83 -100 112 -183
162 -116 70 -185 89 -322 93 -66 2 -133 1 -150 -1z m226 -204 c72 -14 143 -51
205 -108 46 -42 124 -142 124 -158 0 -3 6 -20 14 -37 8 -18 21 -63 30 -102 61
-266 -76 -549 -310 -639 -58 -22 -85 -26 -164 -26 -139 1 -234 38 -324 127
-95 93 -140 184 -160 323 -29 202 31 382 171 510 115 105 249 141 414 110z"/>
<path d="M6070 6123 c0 -568 0 -570 61 -689 83 -161 238 -250 458 -261 307
-16 491 86 593 330 22 51 22 64 26 595 l3 542 -96 0 -95 0 0 -503 c0 -441 -2
-510 -16 -553 -53 -155 -181 -243 -359 -244 -140 0 -271 70 -319 171 -46 100
-46 94 -46 625 l0 504 -105 0 -105 0 0 -517z"/>
<path d="M7460 5916 l0 -726 293 0 c265 0 299 2 367 21 197 54 315 186 375
420 37 141 36 436 -1 573 -47 172 -143 305 -265 366 -112 57 -146 62 -471 67
l-298 5 0 -726z m533 533 c176 -27 257 -118 313 -349 17 -72 18 -288 0 -370
-43 -208 -108 -296 -252 -344 -41 -13 -83 -16 -225 -14 l-174 3 -3 530 c-1
292 0 536 3 543 6 16 236 17 338 1z"/>
<path d="M8730 5916 l0 -727 323 4 c184 2 348 9 382 16 97 18 195 72 259 142
31 33 56 66 56 72 0 7 8 26 17 42 12 22 16 57 17 135 1 93 -2 111 -25 160 -28
60 -116 148 -175 176 -19 9 -34 20 -34 23 0 4 27 34 61 65 81 77 111 142 111
241 0 140 -62 246 -177 305 -105 53 -165 61 -507 67 l-308 5 0 -726z m655 520
c96 -44 126 -89 126 -192 0 -65 -3 -80 -28 -116 -32 -47 -94 -84 -163 -96 -25
-4 -124 -5 -220 -2 l-175 5 -3 200 c-1 110 0 206 3 213 4 11 44 13 213 10 172
-4 214 -7 247 -22z m-17 -592 c69 -20 118 -50 160 -98 38 -44 47 -72 47 -152
0 -102 -57 -165 -186 -208 -45 -15 -93 -18 -250 -20 -107 -1 -200 -1 -206 2
-10 3 -13 61 -13 241 0 131 3 241 7 244 3 4 92 7 196 7 146 0 202 -4 245 -16z"/>
<path d="M9960 6133 c1 -385 4 -523 14 -570 40 -188 172 -313 376 -357 59 -13
121 -16 290 -14 l215 3 0 70 c1 114 25 103 -231 104 -123 0 -232 5 -241 10
-10 5 -39 19 -65 31 -53 24 -96 73 -130 146 -23 49 -23 52 -26 567 l-3 517
-99 0 -100 0 0 -507z"/>
<path d="M11040 5915 l0 -725 105 0 105 0 0 725 0 725 -105 0 -105 0 0 -725z"/>
<path d="M11430 6555 l0 -85 218 -2 217 -3 3 -637 2 -638 95 0 95 0 0 640 0
640 220 0 220 0 0 85 0 85 -535 0 -535 0 0 -85z"/>
<path d="M12710 6550 l0 -90 370 0 c414 0 395 4 337 -72 -40 -52 -360 -493
-402 -552 -30 -42 -238 -326 -322 -439 -42 -57 -43 -61 -43 -133 l0 -74 545 0
545 0 0 88 0 88 -407 -1 c-268 0 -407 3 -410 10 -2 6 26 51 63 100 36 50 110
151 164 225 190 258 341 465 395 540 30 41 84 115 120 164 l65 89 0 74 0 73
-510 0 -510 0 0 -90z"/>
<path d="M8825 4271 c-21 -9 -42 -42 -47 -76 -2 -11 -14 -22 -28 -25 -36 -8
-41 -50 -7 -50 32 0 35 -10 36 -124 0 -53 0 -100 1 -106 0 -5 9 -10 20 -10 18
0 20 8 22 118 l3 117 62 3 62 3 3 -118 c3 -114 4 -118 26 -121 l23 -3 -3 143
-3 143 -82 3 c-74 2 -83 5 -83 22 0 21 35 50 62 50 11 0 18 8 18 20 0 16 -6
20 -32 19 -18 0 -42 -4 -53 -8z"/>
<path d="M8956 4265 c-22 -22 -9 -47 23 -43 32 4 40 33 12 47 -15 8 -23 7 -35
-4z"/>
<path d="M11671 4271 c-7 -5 -11 -17 -9 -27 4 -25 51 -26 56 -2 4 20 -29 40
-47 29z"/>
<path d="M3452 4078 c3 -185 4 -193 23 -193 18 0 20 8 25 96 6 108 18 132 71
143 38 7 87 -17 94 -47 3 -12 6 -60 7 -107 3 -80 4 -85 26 -88 22 -3 22 -2 22
103 0 120 -12 155 -59 175 -29 12 -94 10 -138 -5 -21 -7 -22 -4 -25 51 -3 53
-5 59 -26 62 l-22 3 2 -193z"/>
<path d="M4715 4258 c-3 -8 -4 -95 -3 -193 3 -172 4 -180 23 -180 19 0 20 7
20 190 0 173 -2 190 -18 193 -9 2 -19 -3 -22 -10z"/>
<path d="M6745 4251 c-43 -19 -65 -53 -65 -100 0 -48 28 -70 114 -92 87 -21
116 -40 116 -75 0 -38 -37 -64 -92 -64 -43 0 -52 4 -85 39 -57 61 -91 26 -37
-38 43 -52 141 -63 216 -25 35 18 48 43 48 94 0 57 -32 84 -123 105 -40 9 -80
24 -89 32 -42 38 -3 88 69 88 37 0 49 -5 67 -27 36 -46 71 -36 54 14 -7 21
-23 36 -52 49 -52 23 -90 24 -141 0z"/>
<path d="M7093 4254 c-3 -8 1 -22 9 -30 12 -12 17 -12 33 -1 23 17 14 47 -15
47 -11 0 -23 -7 -27 -16z"/>
<path d="M8345 4258 c-3 -8 -4 -95 -3 -193 l3 -180 25 0 24 0 -1 190 c-1 185
-2 190 -22 193 -12 2 -23 -3 -26 -10z"/>
<path d="M8543 4254 c-3 -8 1 -22 9 -30 12 -12 17 -12 33 -1 23 17 14 47 -15
47 -11 0 -23 -7 -27 -16z"/>
<path d="M9820 4205 c0 -36 -3 -65 -7 -65 -5 1 -19 7 -33 15 -41 23 -111 19
-149 -9 -50 -38 -64 -63 -64 -120 0 -59 18 -94 66 -128 36 -26 111 -30 151 -9
20 11 29 12 38 3 7 -7 20 -12 30 -12 17 0 18 14 18 195 l0 195 -25 0 c-24 0
-25 -2 -25 -65z m-60 -90 c68 -35 81 -112 29 -164 -92 -93 -228 37 -144 138
22 26 35 32 78 40 4 0 21 -6 37 -14z"/>
<path d="M11470 4075 l0 -196 22 3 c22 3 22 4 21 193 -1 184 -2 190 -22 193
-21 3 -21 0 -21 -193z"/>
<path d="M13610 4206 c0 -36 -3 -66 -7 -66 -5 1 -19 7 -33 15 -39 22 -112 19
-150 -7 -98 -68 -89 -208 17 -259 48 -23 108 -21 146 6 18 12 22 12 32 -2 7
-10 19 -14 29 -10 15 6 16 27 14 194 -3 186 -3 188 -25 191 -22 3 -23 0 -23
-62z m-65 -90 c68 -29 83 -119 27 -171 -80 -74 -208 27 -157 125 9 17 31 38
48 45 40 18 41 18 82 1z"/>
<path d="M2266 4244 c-10 -27 3 -34 60 -34 l54 0 0 -165 0 -165 25 0 c14 0 25
3 25 8 1 4 2 77 3 162 l2 155 58 3 c54 3 58 5 55 25 -3 21 -8 22 -139 25 -118
2 -137 0 -143 -14z"/>
<path d="M10574 4247 c-2 -7 -3 -91 -2 -187 l3 -175 85 -3 c135 -5 196 23 231
105 35 83 20 160 -44 221 -41 40 -84 51 -190 52 -54 0 -79 -4 -83 -13z m228
-68 c90 -73 62 -210 -51 -248 -51 -17 -118 -14 -125 5 -8 21 -8 259 1 267 3 4
36 7 72 7 59 0 70 -3 103 -31z"/>
<path d="M2674 4151 c-43 -26 -74 -80 -74 -127 0 -129 152 -196 254 -112 20
16 36 34 36 39 0 17 -57 9 -75 -11 -29 -32 -95 -27 -134 9 -17 16 -31 34 -31
40 0 7 44 11 123 13 l122 3 3 30 c12 99 -131 173 -224 116z m126 -36 c30 -16
49 -53 32 -64 -5 -3 -46 -5 -91 -3 -92 4 -100 14 -50 56 35 29 67 33 109 11z"/>
<path d="M3090 4148 c-49 -34 -72 -83 -67 -141 11 -122 167 -179 255 -91 17
17 32 36 32 42 0 23 -31 19 -66 -9 -22 -17 -49 -29 -66 -29 -122 0 -149 162
-34 200 38 12 89 -3 115 -33 16 -20 51 -22 51 -4 0 15 -45 59 -77 76 -37 19
-107 13 -143 -11z"/>
<path d="M3874 4157 c-2 -7 -3 -71 -2 -143 3 -121 4 -129 23 -129 18 0 20 8
25 90 6 102 19 130 67 146 72 24 113 -31 112 -151 -1 -94 -1 -92 24 -88 19 3
22 10 25 53 2 28 1 78 -3 113 -5 51 -12 67 -37 92 -25 25 -37 30 -79 30 -28 0
-64 -7 -81 -16 -28 -15 -32 -15 -40 0 -11 19 -27 21 -34 3z"/>
<path d="M4342 4150 c-100 -61 -95 -202 9 -258 81 -43 173 -11 211 75 27 61
17 105 -38 160 -40 40 -47 43 -96 43 -35 0 -64 -7 -86 -20z m151 -61 c40 -43
38 -101 -4 -140 -74 -69 -184 -6 -165 94 7 37 27 61 66 76 36 13 71 3 103 -30z"/>
<path d="M4962 4149 c-39 -26 -72 -85 -72 -132 0 -38 31 -90 73 -121 43 -32
124 -28 171 7 65 50 82 115 50 184 -37 78 -148 109 -222 62z m122 -33 c68 -28
82 -123 24 -171 -82 -69 -198 23 -152 120 8 18 30 40 47 49 39 19 40 19 81 2z"/>
<path d="M5382 4149 c-89 -58 -94 -179 -10 -242 55 -40 89 -41 182 -2 17 7 18
5 12 -21 -18 -75 -107 -99 -169 -44 -66 58 -95 24 -31 -36 28 -27 44 -34 77
-35 95 -3 124 9 157 64 17 28 20 51 20 179 0 152 -9 184 -38 140 -14 -21 -14
-21 -45 -1 -43 26 -112 25 -155 -2z m148 -48 c14 -10 29 -32 34 -49 28 -100
-83 -173 -163 -106 -27 22 -31 32 -31 72 1 96 83 138 160 83z"/>
<path d="M5740 4159 c0 -6 25 -67 55 -135 30 -69 55 -131 55 -139 0 -8 -9 -31
-21 -51 -22 -40 -15 -60 17 -50 13 4 44 64 97 183 42 98 77 184 77 191 0 6 -9
12 -21 12 -20 0 -45 -43 -93 -162 -8 -21 -19 -38 -24 -38 -5 0 -24 35 -41 78
-18 42 -39 87 -47 100 -15 23 -54 31 -54 11z"/>
<path d="M7095 4158 c-3 -8 -4 -72 -3 -144 3 -126 4 -129 26 -132 l23 -3 -3
143 c-3 127 -5 143 -21 146 -9 2 -19 -3 -22 -10z"/>
<path d="M7305 4148 c-3 -13 -4 -77 -3 -143 3 -116 4 -120 26 -123 21 -3 22
-1 22 78 0 99 16 142 59 160 29 12 35 11 59 -7 26 -19 27 -26 32 -124 5 -98 6
-104 28 -107 12 -2 22 0 23 5 0 4 2 45 4 91 4 91 19 126 61 142 30 12 69 -2
83 -29 6 -11 11 -63 11 -115 0 -96 0 -96 25 -96 l25 0 0 100 c0 108 -11 146
-52 174 -31 22 -96 20 -136 -4 l-33 -20 -26 20 c-29 23 -88 27 -128 8 -19 -9
-28 -9 -37 0 -19 19 -37 14 -43 -10z"/>
<path d="M7907 4163 c-11 -10 -8 -371 2 -377 24 -15 40 7 43 57 3 57 2 57 76
36 122 -34 229 109 162 219 -41 68 -129 91 -206 55 -34 -17 -36 -17 -45 0 -10
18 -21 21 -32 10z m189 -48 c41 -17 69 -71 59 -116 -9 -40 -58 -79 -100 -79
-42 0 -91 39 -100 79 -9 44 18 99 57 116 42 18 42 18 84 0z"/>
<path d="M8555 4161 c-3 -6 -6 -70 -7 -143 -1 -121 0 -133 17 -136 9 -2 20 1
24 6 3 5 5 71 3 146 -2 108 -6 136 -17 136 -8 0 -16 -4 -20 -9z"/>
<path d="M9210 4145 c-47 -34 -59 -60 -60 -127 0 -54 3 -61 39 -97 44 -44 94
-58 150 -41 33 9 91 55 91 72 0 15 -42 8 -67 -12 -39 -31 -102 -27 -136 8 -45
47 -38 51 96 54 l122 3 3 28 c4 35 -30 90 -72 116 -47 30 -120 28 -166 -4z
m149 -41 c32 -26 41 -53 19 -55 -37 -2 -173 3 -177 6 -2 3 4 16 13 30 33 50
98 59 145 19z"/>
<path d="M11093 4147 c-53 -37 -70 -80 -65 -164 3 -33 73 -99 113 -106 49 -9
107 7 140 39 16 15 29 31 29 36 0 15 -42 8 -67 -12 -37 -29 -94 -26 -132 6
-55 46 -44 53 92 56 l122 3 3 28 c4 35 -30 90 -72 116 -45 28 -120 27 -163 -2z
m146 -43 c54 -45 43 -54 -65 -54 -85 0 -95 2 -92 17 4 24 65 63 99 63 15 0 41
-12 58 -26z"/>
<path d="M11665 4138 c-3 -18 -5 -82 -3 -143 3 -110 3 -110 28 -110 l25 0 0
140 c0 136 -1 140 -22 143 -18 3 -23 -3 -28 -30z"/>
<path d="M11846 4161 c-5 -7 17 -66 54 -146 5 -11 20 -46 34 -77 18 -42 30
-58 44 -58 26 0 31 8 82 130 24 58 47 109 52 114 15 19 9 46 -11 46 -24 0 -28
-5 -72 -109 -19 -47 -40 -86 -46 -88 -6 -2 -21 22 -33 54 -13 32 -27 62 -32
68 -4 5 -8 16 -8 25 0 31 -51 63 -64 41z"/>
<path d="M12295 4151 c-93 -57 -106 -165 -29 -238 58 -54 154 -52 216 4 43 39
-2 60 -49 23 -37 -29 -94 -26 -132 6 -55 46 -44 53 92 56 l122 3 3 30 c3 38
-28 89 -70 115 -42 26 -113 26 -153 1z m135 -47 c53 -45 39 -57 -65 -55 -49 1
-91 4 -93 6 -8 8 21 46 46 59 41 23 77 19 112 -10z"/>
<path d="M12655 4138 c-3 -18 -5 -82 -3 -143 3 -103 4 -110 24 -113 20 -3 21
3 27 89 7 106 25 135 89 145 29 5 38 11 38 26 0 27 -19 30 -75 13 -44 -13 -51
-13 -61 0 -18 24 -33 17 -39 -17z"/>
<path d="M12999 4146 c-134 -91 -52 -295 109 -271 41 6 112 54 112 76 0 17
-57 9 -75 -11 -13 -14 -31 -20 -61 -20 -34 0 -48 6 -74 31 -17 18 -28 35 -23
40 5 5 60 10 122 11 136 4 146 11 113 79 -43 87 -147 117 -223 65z m131 -31
c29 -15 57 -52 47 -62 -3 -2 -45 -5 -93 -5 -95 0 -110 8 -78 44 36 39 78 47
124 23z"/>
</g>
</svg>
