<svg xmlns="http://www.w3.org/2000/svg" viewBox="0 0 64 64" id="online-movie">
  <path fill="#7fcdf2" d="M62,11a3,3,0,0,0-3-3H5a3,3,0,0,0-3,3V53a3,3,0,0,0,3,3H59a3,3,0,0,0,3-3Z"></path>
  <path fill="#a2ddf4" d="M62,53V11a3,3,0,0,0-3-3H5.184A2.962,2.962,0,0,0,5,9V51a3,3,0,0,0,3,3H61.816A2.962,2.962,0,0,0,62,53Z"></path>
  <path fill="#43525b" d="M48,30H16V49a3,3,0,0,0,3,3H45a3,3,0,0,0,3-3Z"></path>
  <path fill="#fff" d="M16 30V49a3 3 0 0 0 3 3h1V30zM44 30V52h1a3 3 0 0 0 3-3V30z"></path>
  <path fill="#91989d" d="M59,8H5a3,3,0,0,0-3,3v7H23a3,3,0,0,0,3-3V13H62V11A3,3,0,0,0,59,8Z"></path>
  <path fill="#aab1b7" d="M62,11a2.962,2.962,0,0,0-.184-1H8a3,3,0,0,0-3,3v5H23a3,3,0,0,0,3-3V13H62Z"></path>
  <circle cx="7" cy="13" r="2" fill="#dd4334"></circle>
  <circle cx="14" cy="13" r="2" fill="#f6bf44"></circle>
  <circle cx="21" cy="13" r="2" fill="#009245"></circle>
  <polygon fill="#43525b" points="44 17 46 22 16 30 14 25 44 17"></polygon>
  <circle cx="32" cy="41" r="7" fill="#dd4334"></circle>
  <path fill="#e47971" d="M32,34a6.966,6.966,0,0,0-4.423,1.577,7,7,0,0,0,9.846,9.846A7,7,0,0,0,32,34Z"></path>
  <polygon fill="#fff" points="29 38 29 44 36 41 29 38"></polygon>
  <rect width="4" height="2" x="44" y="34" fill="#43525b"></rect>
  <rect width="4" height="2" x="44" y="40" fill="#43525b"></rect>
  <rect width="4" height="2" x="44" y="46" fill="#43525b"></rect>
  <rect width="4" height="2" x="16" y="34" fill="#43525b"></rect>
  <rect width="4" height="2" x="16" y="40" fill="#43525b"></rect>
  <rect width="4" height="2" x="16" y="46" fill="#43525b"></rect>
  <polygon fill="#69737a" points="15.181 27.952 45.181 19.952 44 17 14 25 15.181 27.952"></polygon>
  <path d="M59,7H5a4,4,0,0,0-4,4V53a4,4,0,0,0,4,4H59a4,4,0,0,0,4-4V11A4,4,0,0,0,59,7ZM5,9H59a2,2,0,0,1,2,2v1H26a1,1,0,0,0-1,1v2a2,2,0,0,1-2,2H3V11A2,2,0,0,1,5,9ZM59,55H5a2,2,0,0,1-2-2V19H23a4,4,0,0,0,4-4V14H61V53A2,2,0,0,1,59,55Z"></path>
  <path d="M7 16a3 3 0 1 0-3-3A3 3 0 0 0 7 16zm0-4a1 1 0 1 1-1 1A1 1 0 0 1 7 12zM14 16a3 3 0 1 0-3-3A3 3 0 0 0 14 16zm0-4a1 1 0 1 1-1 1A1 1 0 0 1 14 12zM21 16a3 3 0 1 0-3-3A3 3 0 0 0 21 16zm0-4a1 1 0 1 1-1 1A1 1 0 0 1 21 12zM48 29H23.631l22.627-6.034a1 1 0 0 0 .671-1.338l-2-5a1 1 0 0 0-1.187-.594l-30 8a1 1 0 0 0-.671 1.338L15 30.193V49a4 4 0 0 0 4 4H45a4 4 0 0 0 4-4V30A1 1 0 0 0 48 29zm-1 5H45V31h2zM19 40H17V36h2zm0-6H17V31h2zm-2 8h2v4H17zm4-11H43V51H21zM45 42h2v4H45zm0-2V36h2v4zM43.4 18.2l1.252 3.129L16.6 28.805l-1.252-3.129zM17 49V48h2v3A2 2 0 0 1 17 49zm28 2V48h2v1A2 2 0 0 1 45 51z"></path>
  <path d="M32,33a8,8,0,1,0,8,8A8.009,8.009,0,0,0,32,33Zm0,14a6,6,0,1,1,6-6A6.006,6.006,0,0,1,32,47Z"></path>
  <path d="M36.394,40.081l-7-3A1,1,0,0,0,28,38v6a1,1,0,0,0,1.394.919l7-3a1,1,0,0,0,0-1.838ZM30,42.483V39.517L33.461,41Z"></path>
</svg>
