<svg xmlns="http://www.w3.org/2000/svg" xmlns:xlink="http://www.w3.org/1999/xlink" width="16" height="16" id="play">
  <defs>
    <linearGradient id="b">
      <stop offset="0" stop-color="#4b5d64"></stop>
      <stop offset="1" stop-color="#3d4155"></stop>
    </linearGradient>
    <linearGradient id="a">
      <stop offset="0" stop-color="#fc6a28"></stop>
      <stop offset="1" stop-color="#f94045"></stop>
    </linearGradient>
    <linearGradient xlink:href="#a" id="c" x1="-888" x2="-874" y1="970.362" y2="970.362" gradientTransform="translate(194 274)" gradientUnits="userSpaceOnUse"></linearGradient>
    <linearGradient xlink:href="#b" id="d" x1="-819.5" x2="-819.5" y1="1000.465" y2="992.055" gradientTransform="rotate(90 -924.14 710.03)scale(.47567)" gradientUnits="userSpaceOnUse"></linearGradient>
  </defs>
  <g transform="translate(695 -1236.362)">
    <circle cx="-687" cy="1244.362" r="7" fill="url(#c)" color="#000" overflow="visible" style="marker:none"></circle>
    <path fill="url(#d)" fill-rule="evenodd" d="M-684 1244.345a.238.238 0 0 0-.11-.183c0-.001 0-.001 0 0l-4.535-2.68h-.002a.238.238 0 0 0-.234 0 .238.238 0 0 0-.119.206v5.346a.238.238 0 0 0 .119.201.238.238 0 0 0 .232 0h.002l4.53-2.677a.238.238 0 0 0 .117-.205.238.238 0 0 0 0-.017z"></path>
  </g>
</svg>
