<svg xmlns="http://www.w3.org/2000/svg" enable-background="new 0 0 64 64" viewBox="0 0 64 64" id="robotic-machine">
  <path fill="#34495c" d="M18.62 32.05c-.54 0-.97-.43-.97-.97V14.09c0-.54.43-.97.97-.97.54 0 .97.43.97.97v16.98C19.59 31.61 19.16 32.05 18.62 32.05zM33.83 24.2c-.54 0-.97-.43-.97-.97v-3.99c0-.33.17-.64.45-.82l2.93-1.87V8.23l-3.66-2.72c-.43-.32-.52-.93-.2-1.36.32-.43.93-.52 1.36-.2l4.05 3.01c.25.18.39.47.39.78v9.33c0 .33-.17.64-.45.82l-2.93 1.87v3.46C34.8 23.76 34.37 24.2 33.83 24.2zM21.54 9.84c-.33 0-.64-.16-.83-.46-.28-.46-.14-1.05.32-1.33l7.05-4.35c.45-.28 1.05-.14 1.33.32.28.46.14 1.05-.32 1.33l-7.05 4.35C21.89 9.79 21.71 9.84 21.54 9.84z"></path>
  <path fill="#34495c" d="M40.58,24.19c-0.54,0-0.97-0.43-0.97-0.97v-3.48l-2.92-1.84c-0.45-0.29-0.59-0.88-0.3-1.34
		c0.29-0.45,0.88-0.59,1.34-0.3l3.37,2.12c0.28,0.18,0.45,0.49,0.45,0.82v4.02C41.55,23.76,41.11,24.19,40.58,24.19z"></path>
  <path fill="#00aeef" d="M13.26 37.41c-.54 0-.97-.43-.97-.97 0-1.69.66-3.27 1.86-4.47 1.18-1.2 2.77-1.86 4.47-1.86 3.48 0 6.32 2.84 6.33 6.33 0 .54-.43.97-.97.97 0 0 0 0 0 0-.53 0-.97-.43-.97-.97-.01-2.42-1.98-4.39-4.39-4.39-1.18 0-2.28.46-3.1 1.29-.84.84-1.29 1.94-1.29 3.11C14.23 36.97 13.8 37.41 13.26 37.41zM23.98 48.14c-.54 0-.97-.43-.97-.97v-2.7c0-.54.43-.97.97-.97.54 0 .97.43.97.97v2.7C24.95 47.7 24.52 48.14 23.98 48.14zM23.98 42.73c-.54 0-.97-.43-.97-.97v-2.63c0-.54.43-.97.97-.97.54 0 .97.43.97.97v2.63C24.95 42.29 24.52 42.73 23.98 42.73zM38.04 48.14c-.54 0-.97-.43-.97-.97V39.5h-7.04v7.66c0 .54-.43.97-.97.97-.54 0-.97-.43-.97-.97v-8.63c0-.54.43-.97.97-.97h8.98c.54 0 .97.43.97.97v8.63C39.01 47.7 38.57 48.14 38.04 48.14z"></path>
  <path fill="#00aeef" d="M32 41.89c-.54 0-.97-.43-.97-.97v-2.38c0-.54.43-.97.97-.97s.97.43.97.97v2.38C32.97 41.45 32.54 41.89 32 41.89zM51 48.14c-.54 0-.97-.43-.97-.97V39.5h-7.05v7.66c0 .54-.43.97-.97.97-.54 0-.97-.43-.97-.97v-8.63c0-.54.43-.97.97-.97H51c.54 0 .97.43.97.97v8.63C51.97 47.7 51.54 48.14 51 48.14z"></path>
  <path fill="#00aeef" d="M44.96 41.89c-.54 0-.97-.43-.97-.97v-2.38c0-.54.43-.97.97-.97s.97.43.97.97v2.38C45.93 41.45 45.5 41.89 44.96 41.89zM46.12 64H17.88c-.54 0-.97-.43-.97-.97v-3.8c0-.54.43-.97.97-.97.54 0 .97.43.97.97v2.83h26.31v-2.83c0-.54.43-.97.97-.97s.97.43.97.97v3.8C47.09 63.57 46.66 64 46.12 64z"></path>
  <path fill="#34495c" d="M51.06,60.2H12.94c-3.86,0-7-3.14-7-7s3.14-7,7-7h38.12c3.86,0,7,3.14,7,7S54.92,60.2,51.06,60.2z
		 M12.94,48.14c-2.79,0-5.06,2.27-5.06,5.06c0,2.79,2.27,5.06,5.06,5.06h38.12c2.79,0,5.06-2.27,5.06-5.06
		c0-2.79-2.27-5.06-5.06-5.06H12.94z"></path>
  <path fill="#00aeef" d="M13.26 42.73c-.54 0-.97-.43-.97-.97v-2.63c0-.54.43-.97.97-.97s.97.43.97.97v2.63C14.23 42.29 13.8 42.73 13.26 42.73zM13.26 48.14c-.54 0-.97-.43-.97-.97v-2.7c0-.54.43-.97.97-.97s.97.43.97.97v2.7C14.23 47.7 13.8 48.14 13.26 48.14zM30.92 7.02c-1.94 0-3.51-1.57-3.51-3.51 0-1.94 1.57-3.51 3.51-3.51 1.94 0 3.51 1.57 3.51 3.51C34.43 5.45 32.86 7.02 30.92 7.02zM30.92 1.94c-.87 0-1.57.71-1.57 1.57 0 .87.71 1.57 1.57 1.57.87 0 1.57-.71 1.57-1.57C32.49 2.64 31.79 1.94 30.92 1.94zM18.62 15.06c-2.42 0-4.39-1.97-4.39-4.39s1.97-4.39 4.39-4.39 4.39 1.97 4.39 4.39S21.05 15.06 18.62 15.06zM18.62 8.21c-1.35 0-2.46 1.1-2.46 2.46s1.1 2.46 2.46 2.46c1.35 0 2.46-1.1 2.46-2.46S19.98 8.21 18.62 8.21z"></path>
  <path fill="#00aeef" d="M24.11 45.43H13.13c-1.28 0-2.32-1.04-2.32-2.32 0-1.28 1.04-2.32 2.32-2.32h10.98c1.28 0 2.32 1.04 2.32 2.32C26.43 44.39 25.39 45.43 24.11 45.43zM13.13 42.73c-.21 0-.38.17-.38.38 0 .21.17.38.38.38h10.98c.21 0 .38-.17.38-.38 0-.21-.17-.38-.38-.38H13.13zM24.11 40.1H13.13c-1.28 0-2.32-1.04-2.32-2.32s1.04-2.32 2.32-2.32h10.98c1.28 0 2.32 1.04 2.32 2.32S25.39 40.1 24.11 40.1zM13.13 37.4c-.21 0-.38.17-.38.38s.17.38.38.38h10.98c.21 0 .38-.17.38-.38s-.17-.38-.38-.38H13.13z"></path>
  <path fill="#34495c" d="M12.94 60.2c-.54 0-.97-.43-.97-.97 0-.54.43-.97.97-.97 2.79 0 5.06-2.27 5.06-5.06 0-2.79-2.27-5.06-5.06-5.06-.54 0-.97-.43-.97-.97 0-.54.43-.97.97-.97 3.86 0 7 3.14 7 7S16.8 60.2 12.94 60.2zM32 60.2c-3.86 0-7-3.14-7-7s3.14-7 7-7c3.86 0 7 3.14 7 7S35.86 60.2 32 60.2zM32 48.14c-2.79 0-5.06 2.27-5.06 5.06 0 2.79 2.27 5.06 5.06 5.06 2.79 0 5.06-2.27 5.06-5.06C37.06 50.41 34.79 48.14 32 48.14zM51.06 60.2c-3.86 0-7-3.14-7-7s3.14-7 7-7c.54 0 .97.43.97.97 0 .54-.43.97-.97.97-2.79 0-5.06 2.27-5.06 5.06 0 2.79 2.27 5.06 5.06 5.06.54 0 .97.43.97.97C52.03 59.77 51.6 60.2 51.06 60.2z"></path>
</svg>
