<svg xmlns="http://www.w3.org/2000/svg" enable-background="new 0 0 25 25" viewBox="0 0 25 25" id="udemy">
  <path fill="#583689" d="M7.413,22.75c-1.256,0-2.405-0.511-3.235-1.439c-0.797-0.89-1.676-2.577-1.343-5.56l0.023-0.183c0.059-0.375,0.124-0.748,0.193-1.103c-0.258,0.042-0.531,0.052-0.828,0.025c-1.361-0.141-2.291-1.263-2.221-2.67c0.017-0.323,0.188-0.618,0.46-0.792C3.299,9.212,5.22,5.597,5.579,4.728c0.402-0.956,0.799-1.554,1.248-1.887C7.336,2.447,7.874,2.25,8.457,2.25c1.117,0,1.743,0.523,2.077,0.962c0.788,1.037,0.855,2.761,0.2,5.123c-1.015,3.643-1.689,6.393-1.689,7.978c0,0.197,0.01,0.366,0.03,0.513c0,0.002,0,0.005,0.001,0.007c0.078-0.087,0.156-0.179,0.222-0.258c1.217-1.55,2.28-3.212,3.234-5.06c0.589-1.145,1.052-2.035,1.423-2.748c0.416-0.801,0.716-1.376,0.948-1.843c0.475-0.956,1.106-1.979,2.59-1.979l0.224,0.01c1.273,0.11,2.749,1.009,2.751,4.678l-0.002,0.462c0,1.39,0.056,2.77,0.161,3.991c0.015,0.184,0.036,0.312,0.057,0.398c0.065-0.021,0.137-0.051,0.196-0.089c0.524-0.34,1.196-0.895,1.743-1.439c0.248-0.248,0.609-0.349,0.948-0.262c0.231,0.054,0.46,0.166,0.652,0.321c0.468,0.373,0.743,0.995,0.775,1.754c-0.026,1.05-0.364,1.968-0.978,2.727c-0.955,1.281-2.718,2.128-4.468,2.128c-2.339,0-3.808-1.229-4.382-3.662c-2.126,3.979-4.17,6.06-6.436,6.619C8.315,22.691,7.865,22.75,7.413,22.75z M4.462,11.735c0.198,0,0.396,0.059,0.566,0.176c0.337,0.231,0.499,0.645,0.409,1.043l-0.153,0.685c-0.163,0.628-0.322,1.422-0.445,2.212l-0.018,0.14c-0.194,1.736,0.105,3.159,0.847,3.987c0.635,0.71,1.638,0.912,2.572,0.665c2.176-0.537,4.32-3.38,6.766-8.949c0.195-0.443,0.679-0.688,1.152-0.569c0.471,0.114,0.792,0.551,0.762,1.034c-0.019,0.292-0.028,0.632-0.028,0.974c0,0.278,0.008,0.554,0.021,0.828c0.176,3.38,1.455,3.663,2.641,3.663c1.29,0,2.401-0.702,2.888-1.354c0.223-0.276,0.378-0.574,0.468-0.889c-0.326,0.265-0.651,0.504-0.951,0.699c-0.438,0.275-0.991,0.442-1.456,0.442c-0.63,0-1.711-0.295-1.868-2.272c-0.109-1.271-0.168-2.71-0.168-4.156l0.002-0.469c0-0.776-0.088-2.606-0.889-2.676l-0.137-0.006c-0.178,0.001-0.316,0.001-0.749,0.872c-0.237,0.476-0.541,1.061-0.964,1.874c-0.37,0.711-0.831,1.599-1.419,2.741c-1.014,1.962-2.145,3.729-3.458,5.4c-0.352,0.423-0.641,0.735-0.97,0.96c-0.287,0.193-0.619,0.298-0.965,0.305c0,0,0,0-0.001,0c-0.387,0-1.602-0.146-1.826-2.017c-0.028-0.211-0.046-0.474-0.046-0.739c0-1.845,0.674-4.632,1.763-8.541C9.34,5.88,9.226,4.796,8.941,4.422C8.899,4.366,8.811,4.25,8.486,4.25c-0.124,0-0.241,0.022-0.451,0.186c-0.026,0.02-0.244,0.192-0.61,1.062c-0.017,0.038-1.849,4.3-5.325,6.833c0.062,0.086,0.161,0.153,0.318,0.169c0.435,0.041,0.771-0.119,1.49-0.598C4.076,11.791,4.27,11.735,4.462,11.735z M22.938,14.54c0,0,0,0.001,0.002,0.002C22.938,14.541,22.938,14.54,22.938,14.54z"></path>
</svg>
